HIERARCHY
ROOT Hips
{
	OFFSET 0.00000 0.00000 0.00000
	CHANNELS 6 Xposition Yposition Zposition Zrotation Yrotation Xrotation 
	JOINT LHipJoint
	{
		OFFSET 0 0 0
		CHANNELS 3 Zrotation Yrotation Xrotation
		JOINT LeftUpLeg
		{
			OFFSET 1.62329 -1.80800 0.67318
			CHANNELS 3 Zrotation Yrotation Xrotation
			JOINT LeftLeg
			{
				OFFSET 2.57139 -7.06484 0.00000
				CHANNELS 3 Zrotation Yrotation Xrotation
				JOINT LeftFoot
				{
					OFFSET 2.52017 -6.92413 0.00000
					CHANNELS 3 Zrotation Yrotation Xrotation
					JOINT LeftToeBase
					{
						OFFSET 0.23295 -0.64001 2.10214
						CHANNELS 3 Zrotation Yrotation Xrotation
						End Site
						{
							OFFSET 0.00000 -0.00000 1.10139
						}
					}
				}
			}
		}
	}
	JOINT RHipJoint
	{
		OFFSET 0 0 0
		CHANNELS 3 Zrotation Yrotation Xrotation
		JOINT RightUpLeg
		{
			OFFSET -1.48061 -1.80800 0.67318
			CHANNELS 3 Zrotation Yrotation Xrotation
			JOINT RightLeg
			{
				OFFSET -2.63258 -7.23296 0.00000
				CHANNELS 3 Zrotation Yrotation Xrotation
				JOINT RightFoot
				{
					OFFSET -2.54779 -7.00000 0.00000
					CHANNELS 3 Zrotation Yrotation Xrotation
					JOINT RightToeBase
					{
						OFFSET -0.23067 -0.63376 2.12161
						CHANNELS 3 Zrotation Yrotation Xrotation
						End Site
						{
							OFFSET -0.00000 -0.00000 1.11000
						}
					}
				}
			}
		}
	}
	JOINT LowerBack
	{
		OFFSET 0 0 0
		CHANNELS 3 Zrotation Yrotation Xrotation
		JOINT Spine
		{
			OFFSET -0.02108 2.07573 -0.16981
			CHANNELS 3 Zrotation Yrotation Xrotation
			JOINT Spine1
			{
				OFFSET 0.05070 2.08439 -0.03141
				CHANNELS 3 Zrotation Yrotation Xrotation
				JOINT Neck
				{
					OFFSET 0 0 0
					CHANNELS 3 Zrotation Yrotation Xrotation
					JOINT Neck1
					{
						OFFSET -0.10731 1.60408 0.31370
						CHANNELS 3 Zrotation Yrotation Xrotation
						JOINT Head
						{
							OFFSET 0.08411 1.65679 -0.30822
							CHANNELS 3 Zrotation Yrotation Xrotation
							End Site
							{
								OFFSET 0.03911 1.69149 -0.14146
							}
						}
					}
				}
				JOINT LeftShoulder
				{
					OFFSET 0 0 0
					CHANNELS 3 Zrotation Yrotation Xrotation
					JOINT LeftArm
					{
						OFFSET 3.52315 0.73219 -0.54694
						CHANNELS 3 Zrotation Yrotation Xrotation
						JOINT LeftForeArm
						{
							OFFSET 5.32462 -0.00000 -0.00000
							CHANNELS 3 Zrotation Yrotation Xrotation
							JOINT LeftHand
							{
								OFFSET 3.48402 -0.00000 -0.00000
								CHANNELS 3 Zrotation Yrotation Xrotation
								JOINT LeftFingerBase
								{
									OFFSET 0 0 0
									CHANNELS 3 Zrotation Yrotation Xrotation
									JOINT LeftHandIndex1
									{
										OFFSET 0.57248 -0.00000 -0.00000
										CHANNELS 3 Zrotation Yrotation Xrotation
										End Site
										{
											OFFSET 0.46154 -0.00000 -0.00000
										}
									}
								}
								JOINT LThumb
								{
									OFFSET 0 0 0
									CHANNELS 3 Zrotation Yrotation Xrotation
									End Site
									{
										OFFSET 0.46859 -0.00000 0.46859
									}
								}
							}
						}
					}
				}
				JOINT RightShoulder
				{
					OFFSET 0 0 0
					CHANNELS 3 Zrotation Yrotation Xrotation
					JOINT RightArm
					{
						OFFSET -3.41766 0.93592 -0.10019
						CHANNELS 3 Zrotation Yrotation Xrotation
						JOINT RightForeArm
						{
							OFFSET -5.33589 -0.00000 -0.00000
							CHANNELS 3 Zrotation Yrotation Xrotation
							JOINT RightHand
							{
								OFFSET -3.64134 -0.00000 -0.00000
								CHANNELS 3 Zrotation Yrotation Xrotation
								JOINT RightFingerBase
								{
									OFFSET 0 0 0
									CHANNELS 3 Zrotation Yrotation Xrotation
									JOINT RightHandIndex1
									{
										OFFSET -0.73481 -0.00000 -0.00000
										CHANNELS 3 Zrotation Yrotation Xrotation
										End Site
										{
											OFFSET -0.59242 -0.00000 -0.00000
										}
									}
								}
								JOINT RThumb
								{
									OFFSET 0 0 0
									CHANNELS 3 Zrotation Yrotation Xrotation
									End Site
									{
										OFFSET -0.60147 -0.00000 0.60147
									}
								}
							}
						}
					}
				}
			}
		}
	}
}
MOTION
Frames: 12
Frame Time: .0083333
0.0804 17.9138 -0.8848 3.4916 -9.1014 0.7479 0.0000 0.0000 0.0000 -24.4199 -0.8079 1.6610 0.4384 4.2485 11.7769 0.3498 0.2467 -11.2646 0.3776 -3.9464 -10.9260 0.0000 0.0000 0.0000 12.2955 9.7020 -5.1037 -2.1738 -9.2191 26.4830 -0.9414 3.7451 -17.4613 -0.0304 -1.1260 3.0955 -4.1220 -2.2436 -1.0025 2.6547 -2.9657 -0.2603 4.9993 -1.4992 0.6448 -9.2083 1.8320 -19.4842 3.5107 4.5195 22.2842 3.4011 1.7152 10.0345 -0.0000 0.0000 0.0000 -67.6452 -47.4666 36.6812 124.7080 -54.9190 -89.5452 -0.0000 -0.0000 3.8747 28.8713 20.4231 10.8908 -7.1250 0.0000 -0.0000 0.3844 53.0148 0.0758 -0.0000 0.0000 0.0000 81.3196 -5.4267 9.0670 -18.8552 29.2383 -4.9599 0.0000 0.0000 16.9367 -27.5768 7.7242 -4.0153 7.1250 -0.0000 -0.0000 -0.5428 -21.2800 -0.3088
0.0821 17.9156 -0.8806 3.4552 -9.1097 0.7408 0.0000 0.0000 0.0000 -24.3923 -0.7680 1.7071 0.4365 4.2396 11.7518 0.3519 0.2438 -11.2962 0.3769 -3.9427 -10.9155 0.0000 0.0000 0.0000 12.3207 9.6634 -5.0731 -2.1733 -9.2182 26.4802 -0.9413 3.8265 -17.4501 -0.0353 -1.2132 3.3355 -4.0492 -2.2525 -1.0419 2.6734 -2.9772 -0.2302 4.9748 -1.5068 0.6966 -9.0975 1.8612 -19.6138 3.3865 4.5687 22.1264 3.3435 1.7378 10.0051 -0.0000 -0.0000 0.0000 -66.9995 -47.9815 35.9702 124.4426 -55.0050 -89.3279 -0.0000 -0.0000 3.9056 28.8679 20.2280 10.7920 -7.1250 0.0000 -0.0000 0.4205 52.7991 0.0807 -0.0000 -0.0000 0.0000 81.2881 -5.2565 9.0465 -18.8471 29.2283 -4.9560 0.0000 0.0000 17.1231 -27.5163 7.8669 -4.0783 7.1250 -0.0000 -0.0000 -0.4911 -21.1246 -0.2811
0.0826 17.9169 -0.8791 3.4475 -9.1060 0.7411 0.0000 0.0000 0.0000 -24.3854 -0.7287 1.7292 0.4339 4.2269 11.7158 0.3548 0.1865 -11.3217 0.3748 -3.9319 -10.8853 0.0000 0.0000 0.0000 12.3240 9.6423 -5.0716 -2.1725 -9.2166 26.4752 -0.9401 3.8230 -17.4390 -0.0324 -1.1614 3.1929 -4.0345 -2.2646 -1.0988 2.6849 -2.9918 -0.1953 4.9748 -1.5167 0.7661 -8.9740 1.9250 -19.7050 3.2933 4.6490 21.9314 3.2969 1.7812 9.9521 0.0000 -0.0000 0.0000 -66.4281 -48.4198 35.3277 124.1744 -55.0909 -89.1081 -0.0000 -0.0000 4.0137 28.8627 20.0837 10.7177 -7.1250 0.0000 -0.0000 0.4438 52.6391 0.0834 0.0000 -0.0000 0.0000 81.2634 -5.1101 9.0688 -18.8843 29.2747 -4.9742 0.0000 0.0000 17.2597 -27.4605 7.8819 -4.0764 7.1250 -0.0000 -0.0000 -0.4499 -21.1121 -0.2577
0.0826 17.9163 -0.8803 3.5070 -9.1025 0.7196 0.0000 0.0000 0.0000 -24.4456 -0.7155 1.7517 0.4299 4.2079 11.6622 0.3522 0.1895 -11.2805 0.3778 -3.9477 -10.9295 0.0000 0.0000 0.0000 12.2659 9.6696 -5.0541 -2.1720 -9.2154 26.4715 -0.9445 3.7980 -17.4841 -0.0312 -1.1406 3.1357 -4.0971 -2.2760 -1.0417 2.6881 -3.0082 -0.2154 5.0161 -1.5235 0.7187 -8.8874 1.9934 -19.8256 3.2439 4.7393 21.7628 3.2747 1.8305 9.9112 0.0000 -0.0000 0.0000 -65.9851 -48.7922 34.8059 124.0078 -55.1438 -88.9714 -0.0000 -0.0000 4.1498 29.0191 19.9940 10.7402 -7.1250 0.0000 -0.0000 0.6241 52.5703 0.1163 0.0000 -0.0000 0.0000 81.2180 -5.0609 9.1852 -18.9368 29.3401 -4.9999 0.0000 0.0000 17.2593 -27.6285 7.7719 -4.0488 7.1250 -0.0000 -0.0000 -0.5776 -21.2223 -0.3293
0.0836 17.9149 -0.8784 3.5639 -9.1082 0.7003 0.0000 0.0000 0.0000 -24.5194 -0.7580 1.8078 0.4261 4.1892 11.6097 0.3470 0.2693 -11.2287 0.3817 -3.9677 -10.9859 0.0000 0.0000 0.0000 12.1972 9.6492 -5.0430 -2.1716 -9.2148 26.4696 -0.9423 3.8191 -17.4604 -0.0330 -1.1728 3.2244 -4.1390 -2.2823 -1.0245 2.6863 -3.0167 -0.2352 5.0390 -1.5267 0.6916 -8.8549 2.0376 -19.8284 3.2291 4.7901 21.5252 3.2633 1.8640 9.8244 0.0000 -0.0000 0.0000 -65.5647 -49.2482 34.3008 123.7670 -55.2196 -88.7737 -0.0000 -0.0000 4.2681 29.0941 19.8626 10.7062 -7.1250 0.0000 -0.0000 0.7273 52.4395 0.1332 0.0000 -0.0000 0.0000 81.1971 -5.0366 9.3003 -19.0065 29.4267 -5.0340 0.0000 0.0000 17.1822 -27.6200 7.5188 -3.9167 7.1250 -0.0000 -0.0000 -0.5854 -21.5074 -0.3300
0.0854 17.9159 -0.8748 3.5387 -9.1288 0.7156 0.0000 0.0000 0.0000 -24.5112 -0.7902 1.8705 0.4211 4.1651 11.5416 0.3446 0.3493 -11.2208 0.3855 -3.9871 -11.0405 0.0000 0.0000 0.0000 12.2127 9.6474 -5.0646 -2.1735 -9.2186 26.4815 -0.9408 3.8093 -17.4475 -0.0325 -1.1636 3.1992 -4.0869 -2.2796 -1.0869 2.6995 -3.0118 -0.2172 5.0202 -1.5258 0.7426 -8.7960 2.0626 -19.8814 3.2168 4.8104 21.2936 3.2460 1.8854 9.7519 -0.0000 -0.0000 0.0000 -65.1200 -49.7389 33.7820 123.4126 -55.3298 -88.4825 -0.0000 -0.0000 4.4169 29.3043 19.5291 10.6266 -7.1250 0.0000 -0.0000 1.0068 52.1104 0.1763 -0.0000 -0.0000 0.0000 81.1979 -4.9536 9.3496 -19.0913 29.5319 -5.0758 0.0000 0.0000 17.1722 -27.5439 7.3571 -3.8208 7.1250 -0.0000 -0.0000 -0.5389 -21.6946 -0.3015
0.0846 17.9175 -0.8733 3.5105 -9.1520 0.7331 0.0000 0.0000 0.0000 -24.4865 -0.8268 1.8892 0.4200 4.1594 11.5257 0.3443 0.4096 -11.2402 0.3903 -4.0116 -11.1093 0.0000 0.0000 0.0000 12.2448 9.6641 -5.0805 -2.1721 -9.2158 26.4726 -0.9378 3.7971 -17.4200 -0.0326 -1.1651 3.2031 -4.0801 -2.2705 -1.1043 2.7327 -2.9995 -0.2219 5.0506 -1.5198 0.7476 -8.6875 2.0957 -20.0142 3.1053 4.8615 21.1627 3.1951 1.9089 9.7327 -0.0000 -0.0000 0.0000 -64.7185 -50.1659 33.3046 123.0609 -55.4375 -88.1930 -0.0000 -0.0000 4.4788 29.4302 19.2864 10.5554 -7.1250 0.0000 -0.0000 1.1798 51.8651 0.1995 -0.0000 -0.0000 0.0000 81.1970 -4.8725 9.3715 -19.1676 29.6264 -5.1135 0.0000 0.0000 17.2016 -27.6489 7.3101 -3.8136 7.1250 -0.0000 -0.0000 -0.6177 -21.7397 -0.3450
0.0844 17.9161 -0.8736 3.5157 -9.1631 0.7463 0.0000 0.0000 0.0000 -24.4843 -0.7839 1.8377 0.4202 4.1608 11.5296 0.3425 0.4014 -11.2066 0.4002 -4.0615 -11.2497 0.0000 0.0000 0.0000 12.2414 9.6641 -5.0848 -2.1693 -9.2102 26.4552 -0.9357 3.7536 -17.4056 -0.0286 -1.0921 3.0022 -4.0870 -2.2673 -1.0665 2.7522 -2.9965 -0.2627 5.0777 -1.5159 0.6855 -8.6706 2.1248 -20.0996 3.0727 4.9115 21.0664 3.1866 1.9330 9.7123 0.0000 0.0000 0.0000 -64.2212 -50.5382 32.7687 122.8041 -55.5152 -87.9814 -0.0000 -0.0000 4.4044 29.4814 19.1206 10.4914 -7.1250 0.0000 -0.0000 1.2609 51.6905 0.2078 0.0000 0.0000 0.0000 81.1673 -4.8893 9.5162 -19.2776 29.7621 -5.1679 0.0000 0.0000 17.1510 -27.6345 7.3334 -3.8233 7.1250 -0.0000 -0.0000 -0.6060 -21.7146 -0.3388
0.0845 17.9155 -0.8728 3.4833 -9.1444 0.7805 0.0000 0.0000 0.0000 -24.4423 -0.7662 1.7968 0.4197 4.1580 11.5215 0.3432 0.3314 -11.1915 0.3847 -3.9830 -11.0289 0.0000 0.0000 0.0000 12.2701 9.6669 -5.0945 -2.1672 -9.2061 26.4421 -0.9368 3.7867 -17.4116 -0.0318 -1.1507 3.1636 -4.0457 -2.2672 -1.0708 2.7754 -2.9968 -0.2826 5.0787 -1.5152 0.6665 -8.7094 2.1605 -20.1896 3.1551 4.9594 20.9318 3.2259 1.9672 9.6736 0.0000 0.0000 0.0000 -63.6756 -50.9565 32.1938 122.5211 -55.5998 -87.7481 -0.0000 -0.0000 4.3075 29.5989 18.8647 10.4076 -7.1250 0.0000 -0.0000 1.4242 51.4276 0.2255 0.0000 0.0000 0.0000 81.1276 -4.8735 9.6314 -19.3409 29.8401 -5.1994 0.0000 0.0000 17.0174 -27.4548 7.7210 -3.9930 7.1250 -0.0000 -0.0000 -0.4546 -21.2930 -0.2585
0.0846 17.9155 -0.8699 3.4842 -9.1554 0.7568 0.0000 0.0000 0.0000 -24.4474 -0.7453 1.8558 0.4163 4.1414 11.4748 0.3435 0.3434 -11.2008 0.3770 -3.9432 -10.9170 0.0000 0.0000 0.0000 12.2639 9.6142 -5.0793 -2.1682 -9.2080 26.4482 -0.9354 3.8672 -17.3877 -0.0328 -1.1690 3.2139 -4.0349 -2.2578 -1.1003 2.7786 -2.9836 -0.2476 5.0742 -1.5106 0.7172 -8.7568 2.2019 -20.2518 3.2740 5.0036 20.6743 3.2743 2.0082 9.5850 -0.0000 0.0000 0.0000 -63.1545 -51.4500 31.6019 122.1992 -55.6948 -87.4823 -0.0000 -0.0000 4.2453 29.7176 18.4748 10.2527 -7.1250 0.0000 -0.0000 1.6075 51.0147 0.2383 -0.0000 0.0000 0.0000 81.1275 -4.7907 9.6305 -19.3555 29.8581 -5.2067 0.0000 0.0000 17.0200 -27.2599 8.2177 -4.2121 7.1250 -0.0000 -0.0000 -0.2864 -20.7522 -0.1664
0.0838 17.9157 -0.8670 3.4849 -9.1963 0.7436 0.0000 0.0000 0.0000 -24.4548 -0.7540 1.9161 0.4130 4.1253 11.4293 0.3430 0.3952 -11.2126 0.3687 -3.9005 -10.7968 0.0000 0.0000 0.0000 12.2591 9.5814 -5.0808 -2.1685 -9.2085 26.4498 -0.9308 3.9311 -17.3362 -0.0322 -1.1578 3.1830 -4.0401 -2.2330 -1.1913 2.7833 -2.9477 -0.1667 5.0773 -1.4977 0.8478 -8.7960 2.2024 -20.4575 3.3545 5.0148 20.5162 3.3105 2.0257 9.5617 0.0000 -0.0000 0.0000 -62.5663 -52.0745 30.9249 121.9011 -55.7817 -87.2359 -0.0000 -0.0000 4.1541 29.8189 18.2206 10.1600 -7.1250 0.0000 -0.0000 1.7491 50.7491 0.2479 0.0000 -0.0000 0.0000 81.1301 -4.6151 9.6028 -19.3763 29.8835 -5.2170 0.0000 0.0000 17.1539 -27.0389 8.4210 -4.2745 7.1250 -0.0000 -0.0000 -0.1160 -20.5430 -0.0679
0.0826 17.9163 -0.8653 3.5079 -9.2218 0.7343 0.0000 0.0000 0.0000 -24.4723 -0.7169 1.9525 0.4083 4.1021 11.3641 0.3416 0.3884 -11.1872 0.3621 -3.8656 -10.6987 0.0000 0.0000 0.0000 12.2445 9.6349 -5.0615 -2.1698 -9.2112 26.4582 -0.9346 3.8991 -17.3770 -0.0258 -1.0374 2.8517 -4.0854 -2.2148 -1.2354 2.7811 -2.9215 -0.1221 5.0986 -1.4875 0.9176 -8.7117 2.2058 -20.6653 3.3341 5.0175 20.4370 3.2930 2.0337 9.5738 -0.0000 -0.0000 0.0000 -61.9155 -52.6001 30.1854 121.6222 -55.8619 -87.0052 -0.0000 -0.0000 3.9605 29.7544 18.0511 10.0448 -7.1250 0.0000 -0.0000 1.7087 50.5480 0.2337 -0.0000 -0.0000 0.0000 81.1492 -4.4875 9.6801 -19.4392 29.9608 -5.2484 0.0000 0.0000 17.1870 -27.0059 8.1478 -4.1314 7.1250 -0.0000 -0.0000 -0.1070 -20.8508 -0.0619
